<svg xmlns="http://www.w3.org/2000/svg" version="1.1" xmlns:xlink="http://www.w3.org/1999/xlink" xmlns:svgjs="http://svgjs.dev/svgjs" width="119" height="118"><svg width="119" height="118" viewBox="0 0 119 118" fill="none" xmlns="http://www.w3.org/2000/svg">
<rect x="0.217285" width="118" height="118" rx="24" fill="#9333EA"></rect>
<path fill-rule="evenodd" clip-rule="evenodd" d="M35.0558 44.1392L38.6117 30.8994C38.7377 30.4303 39.1629 30.1042 39.6486 30.1042H58.144L35.0558 44.1392ZM54.3369 44.1392H35.0558L23.6674 86.5432C23.4842 87.2252 23.9981 87.8954 24.7043 87.8954H41.7983C42.2846 87.8954 42.7102 87.5685 42.8356 87.0986L48.1544 67.1731L50.3835 58.8347H59.2172C59.2172 58.8347 63.2426 63.9168 65.8219 67.1731C64.0883 73.6679 61.5745 83.0852 60.6495 86.5506C60.4675 87.2323 60.9828 87.8954 61.6884 87.8954H78.7859C79.2716 87.8954 79.6968 87.5693 79.8228 87.1002L91.3609 44.1392L94.7671 31.4564C94.9503 30.7744 94.4364 30.1042 93.7302 30.1042H75.8116L91.3609 44.1392H72.0045C72.0045 44.1392 70.9535 48.0137 70.2801 50.4963C69.4096 53.7526 68.051 58.8347 68.051 58.8347H59.2172L52.6126 50.4963L54.3369 44.1392Z" fill="#F4F6FB"></path>
</svg><style>@media (prefers-color-scheme: light) { :root { filter: none; } }
@media (prefers-color-scheme: dark) { :root { filter: none; } }
</style></svg>