<svg width="118" height="118" viewBox="0 0 118 118" fill="none" xmlns="http://www.w3.org/2000/svg">
<rect width="118" height="118" rx="24" fill="#F4F6FB"/>
<path fill-rule="evenodd" clip-rule="evenodd" d="M34.8386 44.1392L38.3944 30.8994C38.5204 30.4303 38.9456 30.1042 39.4313 30.1042H57.9267L34.8386 44.1392ZM54.1196 44.1392H34.8386L23.4501 86.5432C23.2669 87.2252 23.7808 87.8954 24.487 87.8954H41.581C42.0673 87.8954 42.4929 87.5685 42.6183 87.0986L47.9371 67.1731L50.1662 58.8347H59C59 58.8347 63.0254 63.9168 65.6047 67.1731C63.871 73.6679 61.3572 83.0852 60.4322 86.5506C60.2502 87.2323 60.7655 87.8954 61.4711 87.8954H78.5686C79.0543 87.8954 79.4795 87.5693 79.6055 87.1002L91.1436 44.1392L94.5499 31.4564C94.733 30.7744 94.2191 30.1042 93.5129 30.1042H75.5943L91.1436 44.1392H71.7872C71.7872 44.1392 70.7362 48.0137 70.0628 50.4963C69.1923 53.7526 67.8337 58.8347 67.8337 58.8347H59L52.3953 50.4963L54.1196 44.1392Z" fill="#9333EA"/>
</svg>
